# xmcd CD database file
#
# Track frame offsets:
#	150
#	7923
#	40178
#	72945
#	100391
#	134502
#	159507
#
# Disc length: 2613 seconds
#
# Revision: 0
# Processed by: cddbd v1.5.2PL0 Copyright (c) Steve Scherf et al.
# Submitted via: CDex 1.51
#
DISCID=550a3307
DTITLE=Korey Riker - Recognizance
DYEAR=2015
DGENRE=Jazz
TTITLE0=Thank You
TTITLE1=If I Was
TTITLE2=About A Girl
TTITLE3=Why
TTITLE4=Hang My Hat
TTITLE5=Recognizance
TTITLE6=Hang My Hat (Live)
EXTD=YEAR: 2015
EXTT0=
EXTT1=
EXTT2=
EXTT3=
EXTT4=
EXTT5=
EXTT6=
PLAYORDER=
